<svg xmlns="http://www.w3.org/2000/svg" width="204.679" height="41.686" viewBox="0 0 204.679 41.686">
  <g id="stars" transform="translate(-364.098 -2062.866)">
    <path id="Path_6" data-name="Path 6" d="M14.717,3.866,25.114,9l-10.4,5.132L13.049,25.6,4.956,17.3l-11.428,1.96L-1.077,9l-5.4-10.263L4.956.695l8.093-8.3Z" transform="translate(372.695 2078.236) rotate(-19)" fill="#ffe200"/>
    <path id="Path_8" data-name="Path 8" d="M14.717,3.866,25.114,9l-10.4,5.132L13.049,25.6,4.956,17.3l-11.428,1.96L-1.077,9l-5.4-10.263L4.956.695l8.093-8.3Z" transform="translate(413.695 2078.236) rotate(-19)" fill="#ffe200"/>
    <path id="Path_9" data-name="Path 9" d="M14.717,3.866,25.114,9l-10.4,5.132L13.049,25.6,4.956,17.3l-11.428,1.96L-1.077,9l-5.4-10.263L4.956.695l8.093-8.3Z" transform="translate(454.695 2078.236) rotate(-19)" fill="#ffe200"/>
    <path id="Path_10" data-name="Path 10" d="M14.717,3.866,25.114,9l-10.4,5.132L13.049,25.6,4.956,17.3l-11.428,1.96L-1.077,9l-5.4-10.263L4.956.695l8.093-8.3Z" transform="translate(495.695 2078.236) rotate(-19)" fill="#ffe200"/>
    <path id="Path_11" data-name="Path 11" d="M14.717,3.866,25.114,9l-10.4,5.132L13.049,25.6,4.956,17.3l-11.428,1.96L-1.077,9l-5.4-10.263L4.956.695l8.093-8.3Z" transform="translate(536.695 2078.236) rotate(-19)" fill="#ffe200"/>
  </g>
</svg>
